Window Theory (2004)

In Los Angeles, the twenty-five years old reckless wolf playboy Ethan Humphries lives in night-clubs scoring women supported by his parents, without working or studying. When his high-school friend Bradley accidentally tells him that his former best friend Jeff will get married in a couple of days, Ethan immediately travels to his hometown. He meets Brad, who is studying in the medical school, and the shy Sean, who is studying psychology, and recalls his glorious high school days, but his friends do not tell the name of the bride to him. While meeting Jeff in a bar in the night, Ethan finds that his fiancée is his former high-school sweetheart Stephanie. After meeting Stephanie, Ethan questions whether he is still in love with she, or only recalling a passion from his past. 
 
RIPPER                           : fasamoo
Format                           : AVI
Format/Info                      : Audio Video Interleave
File size                        : 700 MiB
Duration                         : 1h 21mn
Overall bit rate                 : 1 206 Kbps
Writing application              : VirtualDubMod 1.5.4.1 (build 2178/release)
Writing library                  : VirtualDubMod build 2178/release
Language                         : English
Subtitles                        : None
Genre                            : Comedy

Video
ID                               : 0
Format                           : MPEG-4 Visual
Format profile                   : Advanced Simple@L5
Format settings, BVOP            : Yes
Format settings, QPel            : No
Format settings, GMC             : No warppoints
Format settings, Matrix          : Custom
Codec ID                         : XVID
Codec ID/Hint                    : XviD
Duration                         : 1h 21mn
Bit rate                         : 1 085 Kbps
Width                            : 672 pixels
Height                           : 384 pixels
Display aspect ratio             : 16:9
Frame rate                       : 25.000 fps
Color space                      : YUV
Chroma subsampling               : 4:2:0
Bit depth                        : 8 bits
Scan type                        : Progressive
Bits/(Pixel*Frame)               : 0.168
Stream size                      : 630 MiB (90%)
Writing library                  : XviD 1.2.1 (UTC 2008-12-04)

Audio
ID                               : 1
Format                           : MPEG Audio
Format version                   : Version 1
Format profile                   : Layer 3
Mode                             : Joint stereo
Mode extension                   : MS Stereo
Codec ID                         : 55
Codec ID/Hint                    : MP3
Duration                         : 1h 21mn
Bit rate mode                    : Variable
Bit rate                         : 108 Kbps
Nominal bit rate                 : 128 Kbps
Channel(s)                       : 2 channels
Sampling rate                    : 48.0 KHz
Stream size                      : 62.8 MiB (9%)
Alignment                        : Aligned on interleaves
Interleave, duration             : 24 ms (0.60 video frame)
Interleave, preload duration     : 539 ms
Writing library                  : LAME3.98r
Encoding settings                : -m j -V 4 -q 2 -lowpass 17 --abr 128
 
http://leetleech.org/images/47601866601824065108.png 
http://leetleech.org/images/53010222837872411847.png 
http://leetleech.org/images/47911678815855384887.png 
http://leetleech.org/images/15838946258726463076.png 
http://leetleech.org/images/42998260598884560599.png 
http://leetleech.org/images/64019807091142549430.png
 
http://www.youtube.com/watch?v=65xSrB53Vps
 
http://www.imdb.com/title/tt0371405/
 
http://leetleech.org/images/97913465899887526311.png
